# xmcd CD database file
#
# Track frame offsets:
#	150
#	16947
#	55680
#	61570
#	68347
#	75445
#	91810
#	107287
#	123992
#	137800
#	156225
#	170775
#	200185
#	214355
#	222772
#	249072
#
# Disc length: 3569 seconds
#
# Revision: 0
# Processed by: cddbd v1.4PL0 Copyright (c) Steve Scherf et al.
# Submitted via: CDex 1.50
#
DISCID=cd0def10
DTITLE=LHS Music Department - 1994 Musical Showcase 
DYEAR=1900
DGENRE=Jazz
TTITLE0=Dawnwood Overture
TTITLE1=Hampshire Sketches
TTITLE2=O Occhi, Manza Mia
TTITLE3=Walking on the Green Grass
TTITLE4=So Ben Mi Ch'a Bon Tempo
TTITLE5=Yorkshire Ballad
TTITLE6=Russian Sailors' Dance
TTITLE7=Prime Time
TTITLE8=Poltergeists and Moonbeams
TTITLE9=Mr. P.C.
TTITLE10=Sweet Georgia Brown
TTITLE11=Children of Sanchez
TTITLE12=Hail Holy Queen
TTITLE13=Dies Irae (Mozart Reguiem)
TTITLE14=Festivo
TTITLE15=Someone Like You
EXTD=
EXTT0=
EXTT1=
EXTT2=
EXTT3=
EXTT4=
EXTT5=
EXTT6=
EXTT7=
EXTT8=
EXTT9=
EXTT10=
EXTT11=
EXTT12=
EXTT13=
EXTT14=
EXTT15=
PLAYORDER=
